#!OML:ASF F:\VICON\USERDATA\INSTALL\rory3\rory3.ASF
:FULLY-SPECIFIED
:DEGREES
1
root -1.6954499999999988 17.1022 -30.087399999999977 3.202349999999999 -5.2988599999999915 -3.887429999999997
lfemur -13.855299999999978 8.654599999999999 -13.73549999999999
ltibia 102.10899999999998
lfoot 21.16830000000001 -15.717400000000001
ltoes 12.748999999999963
rfemur -30.2986 7.297120000000006 30.843299999999992
rtibia 56.90000000000001
rfoot -18.780000000000022 -8.90625
rtoes -3.709970000000012
lowerback 1.0 -0.46364800000000306 1.9990399999999995
upperback 1.0901799999999977 0.011008399999997476 2.68593
thorax -8.5385 -0.018466000000000093 1.7598300000000038
lowerneck -18.307900000000004 -2.412480000000004 -2.3081899999999997
upperneck 15.254700000000001 -2.9039600000000028 1.2157200000000006
head 7.76884 -1.396659999999999 0.43321100000000035
lclavicle -1.0535600000000027e-14 -1.2324600000000017e-14
lhumerus -45.789500000000004 -10.261400000000002 96.1083
lradius 86.51070000000001
lwrist 33.9425
lhand -29.9034 0.3075739999999989
lfingers 7.12502
lthumb -3.2241700000000013 30.2629
rclavicle -1.0535600000000027e-14 -1.2324600000000017e-14
rhumerus -48.71339999999999 8.724100000000004 -96.1485
rradius 96.89729999999999
rwrist -18.0501
rhand -19.935900000000004 1.0
rfingers 7.12502
rthumb 6.401740000000003 10.5615
2
root -1.7093599999999989 16.9518 -29.175000000000036 3.640999999999999 -4.185070000000006 -4.226099999999996
lfemur -21.0463 9.755300000000009 -12.06239999999998
ltibia 107.89500000000004
lfoot 19.215199999999992 -16.003099999999996
ltoes 6.548689999999976
rfemur -27.55600000000001 7.348430000000002 31.633899999999997
rtibia 57.79020000000001
rfoot -21.80619999999999 -11.8502
rtoes -7.487530000000005
lowerback 1.0 -0.6671380000000023 1.6118799999999993
upperback 0.07106389999999974 -0.19896299999999845 3.508020000000004
thorax -9.9077 -0.07543760000000022 2.963300000000003
lowerneck -16.242599999999996 -2.28665 -3.3857300000000015
upperneck 15.179900000000002 -2.5470600000000023 1.34755
head 7.39939 -1.2883600000000004 0.7133410000000001
lclavicle 5.963540000000013e-16 1.55052e-14
lhumerus -48.67519999999999 -7.9358499999999985 96.97390000000001
lradius 83.74390000000005
lwrist 33.1142
lhand -30.2603 -6.547379999999979
lfingers 7.12502
lthumb -3.5687899999999972 23.402500000000018
rclavicle 5.963540000000013e-16 1.55052e-14
rhumerus -45.96800000000001 12.2325 -96.1519
rradius 98.09659999999998
rwrist -18.556799999999996
rhand -19.5943 1.0
rfingers 7.12502
rthumb 6.731489999999998 10.621999999999998
3
root -1.706820000000001 16.8411 -28.271299999999986 3.89243 -4.440020000000006 -3.6947899999999962
lfemur -27.537499999999994 11.768100000000008 -12.34609999999999
ltibia 111.67599999999999
lfoot 15.411899999999996 -15.521099999999997
ltoes -3.8020299999999825
rfemur -23.893600000000006 8.170720000000006 31.249499999999994
rtibia 57.775200000000005
rfoot -23.56389999999994 -13.265400000000001
rtoes -7.766269999999993
lowerback 1.0 0.06076680000000101 1.3957800000000007
upperback 0.4407590000000019 0.6362100000000006 2.938699999999999
thorax -9.29526 0.31396500000000066 2.234950000000003
lowerneck -17.621699999999997 -2.705249999999995 -2.715509999999999
upperneck 15.139200000000004 -3.301339999999996 1.6812899999999977
head 7.63543 -1.5676200000000011 0.6138060000000001
lclavicle -1.3219200000000022e-14 -1.4710100000000015e-14
lhumerus -50.131600000000006 -9.022249999999994 96.69590000000001
lradius 83.43090000000002
lwrist 32.6349
lhand -29.8752 -7.478730000000008
lfingers 7.12502
lthumb -3.196979999999999 22.476999999999993
rclavicle -1.3219200000000022e-14 -1.4710100000000015e-14
rhumerus -41.5441 13.162399999999998 -96.4125
rradius 100.838
rwrist -18.176800000000004
rhand -20.528799999999997 1.0
rfingers 7.12502
rthumb 5.829299999999996 9.648209999999997
4
root -1.700849999999999 16.8833 -27.30699999999994 4.15367 -3.915219999999991 -3.8980700000000046
lfemur -33.64520000000002 12.739499999999989 -12.201399999999973
ltibia 112.90300000000002
lfoot 12.460299999999982 -15.955100000000002
ltoes -5.35311
rfemur -19.85929999999999 8.09657000000001 31.881700000000002
rtibia 56.570200000000014
rfoot -24.28879999999996 -15.276500000000013
rtoes -12.030400000000022
lowerback 1.0 0.12794899999999976 1.68801
upperback 0.04761159999999931 0.8093560000000004 3.0549400000000033
thorax -9.710350000000002 0.3877389999999997 2.157590000000003
lowerneck -16.782200000000003 -2.8388800000000023 -2.978340000000002
upperneck 14.902800000000001 -3.4893899999999984 1.9574500000000021
head 7.42763 -1.6521099999999982 0.736114
lclavicle 1.0237399999999994e-14 -1.0336800000000027e-14
lhumerus -53.6189 -8.77646 97.1542
lradius 85.00410000000004
lwrist 33.384
lhand -31.572499999999998 1.2675199999999993
lfingers 7.12502
lthumb -4.835969999999994 31.192299999999992
rclavicle 1.0237399999999994e-14 -1.0336800000000027e-14
rhumerus -38.11600000000001 15.475499999999993 -96.3897
rradius 103.886
rwrist -19.3465
rhand -19.3859 1.0
rfingers 7.12502
rthumb 6.932650000000001 9.420269999999999
5
root -1.667839999999999 16.9419 -26.358000000000043 4.495669999999999 -3.325159999999995 -3.872790000000004
lfemur -39.360200000000006 12.822300000000013 -13.159700000000022
ltibia 112.44800000000009
lfoot 9.877139999999983 -16.699400000000015
ltoes -3.778540000000003
rfemur -15.6377 8.035510000000006 31.9638
rtibia 54.67650000000001
rfoot -25.11839999999994 -14.973600000000008
rtoes -17.622400000000024
lowerback 1.0 0.28253099999999964 2.3139899999999987
upperback -0.20083299999999998 1.1210799999999996 2.7543500000000005
thorax -9.97615 0.4960290000000004 1.397269999999999
lowerneck -16.838700000000003 -3.2207700000000017 -2.822719999999999
upperneck 14.821900000000001 -4.10051 2.2580500000000017
head 7.42965 -1.90565 0.7391729999999999
lclavicle 4.969619999999996e-16 1.192709999999999e-15
lhumerus -56.815200000000004 -9.278069999999996 97.3063
lradius 87.42950000000002
lwrist 34.9123
lhand -30.3878 -0.2770449999999931
lfingers 7.12502
lthumb -3.691989999999998 29.670700000000004
rclavicle 4.969619999999996e-16 1.192709999999999e-15
rhumerus -34.50199999999999 16.507800000000007 -96.4705
rradius 107.361
rwrist -20.3283
rhand -19.5596 1.0
rfingers 7.12502
rthumb 6.764940000000001 9.813149999999998
6
root -1.6238699999999993 17.0699 -25.379699999999982 4.724119999999999 -3.54731000000001 -3.9645199999999905
lfemur -44.009100000000004 12.941500000000005 -14.304899999999988
ltibia 109.92200000000008
lfoot 9.343060000000015 -16.468799999999995
ltoes 4.4104499999999724
rfemur -10.978999999999997 8.401609999999991 32.04370000000001
rtibia 52.150299999999994
rfoot -23.748699999999985 -13.803300000000007
rtoes -18.25010000000001
lowerback 1.0 0.887715 3.075789999999996
upperback -0.46453800000000006 2.0533399999999995 2.3621399999999975
thorax -10.2842 0.8829940000000002 0.2985439999999998
lowerneck -16.7103 -3.720800000000002 -2.72309
upperneck 14.853199999999998 -4.862300000000001 2.536319999999999
head 7.44284 -2.2376900000000006 0.728322
lclavicle 6.957459999999996e-16 -3.140799999999998e-14
lhumerus -59.29130000000001 -9.975409999999998 97.38539999999999
lradius 88.96679999999999
lwrist 35.8698
lhand -29.8549 0.3450419999999994
lfingers 7.12502
lthumb -3.177290000000002 30.30110000000001
rclavicle 6.957459999999996e-16 -3.140799999999998e-14
rhumerus -31.672799999999988 16.43779999999999 -96.2387
rradius 111.39499999999998
rwrist -20.936
rhand -19.2624 1.0
rfingers 7.12502
rthumb 7.051840000000001 9.804359999999999
7
root -1.550009999999999 17.2282 -24.33680000000002 5.166920000000001 -3.840490000000006 -3.82530999999999
lfemur -47.40920000000005 12.396900000000016 -15.946200000000015
ltibia 105.52999999999994
lfoot 2.84781 -14.5581
ltoes -12.147300000000001
rfemur -6.568900000000008 8.697900000000013 31.625999999999994
rtibia 49.19689999999997
rfoot -19.83799999999995 -12.1531
rtoes -20.48440000000003
lowerback 1.0 1.674549999999999 3.8652600000000015
upperback -0.5806000000000002 3.1614300000000015 1.840279999999999
thorax -9.830000000000002 1.3613700000000004 -0.9695029999999983
lowerneck -17.2663 -4.28878 -2.0637299999999996
upperneck 15.236900000000002 -5.74062 2.2159799999999983
head 7.65865 -2.63952 0.4013460000000003
lclavicle -1.5803400000000037e-14 -1.311979999999998e-14
lhumerus -61.405199999999994 -10.519899999999994 97.3667
lradius 90.1267
lwrist 36.0149
lhand -29.6674 2.0799100000000017
lfingers 7.12502
lthumb -2.996210000000001 32.0386
rclavicle -1.5803400000000037e-14 -1.311979999999998e-14
rhumerus -29.21489999999999 15.724800000000009 -95.7251
rradius 115.17200000000003
rwrist -21.8895
rhand -19.4553 1.0
rfingers 7.12502
rthumb 6.86564 14.658100000000003
8
root -1.4814399999999999 17.4423 -23.26689999999996 5.346519999999999 -3.218900000000006 -3.4827899999999965
lfemur -49.38800000000006 10.405300000000011 -17.439099999999996
ltibia 99.39789999999999
lfoot 2.4828399999999995 -12.973600000000003
ltoes -14.332499999999994
rfemur -2.1072899999999883 8.094899999999996 30.866500000000002
rtibia 45.67950000000002
rfoot -14.26180000000003 -9.992300000000002
rtoes -21.7338
lowerback 1.0 2.028070000000001 4.314730000000006
upperback -0.6083349999999998 3.663829999999997 1.5872399999999995
thorax -9.49924 1.5806100000000007 -1.5933000000000002
lowerneck -18.4119 -4.8253900000000005 -1.88543
upperneck 15.757100000000003 -6.43777 1.8211200000000018
head 8.023439999999999 -2.9813099999999997 0.12696800000000108
lclavicle -1.0237400000000027e-14 -1.550520000000003e-14
lhumerus -63.06900000000002 -9.763179999999998 97.2665
lradius 90.88759999999999
lwrist 35.3826
lhand -29.3286 1.195499999999997
lfingers 7.12502
lthumb -2.6690600000000004 31.1585
rclavicle -1.0237400000000027e-14 -1.550520000000003e-14
rhumerus -26.860799999999973 15.683399999999997 -94.7349
rradius 118.77800000000003
rwrist -23.315600000000003
rhand -19.9608 1.0
rfingers 7.12502
rthumb 6.37766 16.928
9
root -1.4161800000000002 17.6848 -22.158499999999915 5.214600000000003 -2.125800000000001 -2.9950600000000014
lfemur -49.79920000000005 7.909360000000003 -18.520300000000006
ltibia 91.89459999999997
lfoot 1.9425599999999992 -11.5715
ltoes -11.001
rfemur 2.699019999999992 7.041380000000005 29.94119999999999
rtibia 41.2603
rfoot -6.2834600000000025 -7.151559999999998
rtoes -21.92369999999996
lowerback 1.0 2.0306100000000016 4.942220000000004
upperback -0.2812159999999997 3.6299399999999964 1.1672700000000003
thorax -8.180609999999998 1.5728499999999994 -2.3038699999999954
lowerneck -17.439699999999995 -5.181119999999999 -1.9841099999999998
upperneck 14.952199999999998 -6.972159999999999 2.2524300000000026
head 7.61889 -3.218290000000001 0.25387699999999913
lclavicle -2.5842000000000005e-15 3.975690000000005e-15
lhumerus -64.45679999999999 -8.273079999999998 96.3241
lradius 91.61949999999999
lwrist 35.0959
lhand -29.0653 2.690919999999998
lfingers 7.12502
lthumb -2.41476 32.657
rclavicle -2.5842000000000005e-15 3.975690000000005e-15
rhumerus -24.63079999999997 15.809999999999995 -93.9648
rradius 120.40399999999997
rwrist -23.1023
rhand -20.488499999999995 1.0
rfingers 7.12502
rthumb 5.868199999999998 21.833099999999973
